<svg xmlns="http://www.w3.org/2000/svg" width="600" height="400" viewBox="0 0 600 400"><rect width="100%" height="100%" fill="#DDDDDD"/><path fill="#999999" d="M189.75 163.81h-44.94v28.07h35.42v14.49h-35.42V235h44.94v15.05h-63.84V148.83h63.84v14.98Zm65.03 14.42h13.65l-28.49 71.82h-15.68l-28.49-71.82h14.28q1.96 0 3.26.91 1.29.91 1.71 2.31l13.86 38.36q1.12 3.36 1.96 6.58.84 3.22 1.47 6.44.7-3.22 1.54-6.44.84-3.22 2.03-6.58l14.14-38.36q.49-1.4 1.75-2.31 1.26-.91 3.01-.91Zm36.47 27.65h32.62q0-3.36-.94-6.34-.95-2.97-2.84-5.21-1.89-2.24-4.79-3.54-2.91-1.29-6.76-1.29-7.49 0-11.79 4.27-4.31 4.27-5.5 12.11Zm44.1 10.43H290.9q.42 5.53 1.96 9.55 1.54 4.03 4.06 6.65 2.52 2.63 5.99 3.92 3.46 1.3 7.66 1.3t7.25-.98q3.04-.98 5.32-2.17 2.27-1.19 3.99-2.17 1.71-.98 3.32-.98 2.17 0 3.22 1.61l4.97 6.3q-2.87 3.36-6.44 5.63-3.57 2.28-7.45 3.64-3.89 1.37-7.91 1.93-4.03.56-7.81.56-7.49 0-13.93-2.49-6.44-2.48-11.2-7.35-4.76-4.86-7.49-12.04-2.73-7.17-2.73-16.62 0-7.35 2.38-13.83 2.38-6.47 6.83-11.27 4.44-4.79 10.85-7.59 6.4-2.8 14.45-2.8 6.79 0 12.53 2.17 5.74 2.17 9.87 6.33 4.13 4.17 6.48 10.22 2.34 6.06 2.34 13.83 0 3.92-.84 5.28-.84 1.37-3.22 1.37Zm31.99-34.93 1.19 5.67q2.17-2.17 4.59-4.03 2.41-1.85 5.11-3.15 2.69-1.29 5.77-2.03 3.08-.73 6.72-.73 5.88 0 10.43 1.99 4.55 2 7.6 5.6 3.04 3.61 4.62 8.61 1.57 5.01 1.57 11.03v45.71h-17.29v-45.71q0-6.58-3.01-10.19-3.01-3.6-9.17-3.6-4.48 0-8.4 2.03t-7.42 5.53v51.94h-17.29v-71.82h10.57q3.36 0 4.41 3.15Zm87.92 69.79q-9.38 0-14.38-5.29-5.01-5.28-5.01-14.59v-40.11h-7.35q-1.4 0-2.38-.91t-.98-2.73v-6.86l11.55-1.89 3.64-19.6q.35-1.4 1.33-2.17.98-.77 2.52-.77h8.96v22.61h19.18v12.32h-19.18v38.92q0 3.36 1.65 5.25 1.64 1.89 4.51 1.89 1.61 0 2.7-.39 1.08-.38 1.89-.8.8-.42 1.43-.81.63-.38 1.26-.38.77 0 1.26.38.49.39 1.05 1.16l5.18 8.4q-3.78 3.15-8.68 4.76-4.9 1.61-10.15 1.61Z"/></svg>